<mxfile host="app.diagrams.net" modified="2023-09-26T01:24:12.516Z" agent="Mozilla/5.0 (X11; Ubuntu; Linux x86_64; rv:109.0) Gecko/20100101 Firefox/117.0" etag="L-AEUWyUuL7E4_dBE69K" version="21.8.0" type="github">
  <diagram name="第 1 页" id="c-nyOIZdVKNAjwUqqyrd">
    <mxGraphModel dx="2225" dy="806" grid="1" gridSize="10" guides="1" tooltips="1" connect="1" arrows="1" fold="1" page="1" pageScale="1" pageWidth="827" pageHeight="1169" math="1" shadow="0">
      <root>
        <mxCell id="0" />
        <mxCell id="1" parent="0" />
        <mxCell id="VL0wkUuo-9r3JbKDXi9r-2" value="&lt;font style=&quot;font-size: 30px;&quot;&gt;$$p_1$$&lt;/font&gt;" style="ellipse;whiteSpace=wrap;html=1;aspect=fixed;fillColor=#FFFF00;" parent="1" vertex="1">
          <mxGeometry x="290" y="410" width="80" height="80" as="geometry" />
        </mxCell>
        <mxCell id="VL0wkUuo-9r3JbKDXi9r-3" value="&lt;font style=&quot;font-size: 30px;&quot;&gt;$$p_3$$&lt;/font&gt;" style="ellipse;whiteSpace=wrap;html=1;aspect=fixed;fillColor=#FFFF00;" parent="1" vertex="1">
          <mxGeometry x="360" y="570" width="80" height="80" as="geometry" />
        </mxCell>
        <mxCell id="VL0wkUuo-9r3JbKDXi9r-4" value="&lt;font style=&quot;font-size: 30px;&quot;&gt;$$p_5$$&lt;/font&gt;" style="ellipse;whiteSpace=wrap;html=1;aspect=fixed;fillColor=#FFFF00;" parent="1" vertex="1">
          <mxGeometry x="374" y="820" width="80" height="80" as="geometry" />
        </mxCell>
        <mxCell id="VL0wkUuo-9r3JbKDXi9r-5" value="&lt;font style=&quot;font-size: 30px;&quot;&gt;$$p_4$$&lt;/font&gt;" style="ellipse;whiteSpace=wrap;html=1;aspect=fixed;fillColor=#FFFF00;" parent="1" vertex="1">
          <mxGeometry x="140" y="720" width="80" height="80" as="geometry" />
        </mxCell>
        <mxCell id="VL0wkUuo-9r3JbKDXi9r-6" value="&lt;font style=&quot;font-size: 30px;&quot;&gt;$$p_2$$&lt;/font&gt;" style="ellipse;whiteSpace=wrap;html=1;aspect=fixed;fillColor=#FFFF00;" parent="1" vertex="1">
          <mxGeometry x="150" y="500" width="80" height="80" as="geometry" />
        </mxCell>
        <mxCell id="VL0wkUuo-9r3JbKDXi9r-7" value="" style="endArrow=none;html=1;rounded=0;exitX=1;exitY=0;exitDx=0;exitDy=0;entryX=0;entryY=1;entryDx=0;entryDy=0;" parent="1" source="VL0wkUuo-9r3JbKDXi9r-6" target="VL0wkUuo-9r3JbKDXi9r-2" edge="1">
          <mxGeometry width="50" height="50" relative="1" as="geometry">
            <mxPoint x="390" y="630" as="sourcePoint" />
            <mxPoint x="440" y="580" as="targetPoint" />
          </mxGeometry>
        </mxCell>
        <mxCell id="VL0wkUuo-9r3JbKDXi9r-8" value="" style="endArrow=none;html=1;rounded=0;exitX=0;exitY=0;exitDx=0;exitDy=0;entryX=0.5;entryY=1;entryDx=0;entryDy=0;" parent="1" source="VL0wkUuo-9r3JbKDXi9r-5" target="VL0wkUuo-9r3JbKDXi9r-6" edge="1">
          <mxGeometry width="50" height="50" relative="1" as="geometry">
            <mxPoint x="390" y="630" as="sourcePoint" />
            <mxPoint x="440" y="580" as="targetPoint" />
          </mxGeometry>
        </mxCell>
        <mxCell id="VL0wkUuo-9r3JbKDXi9r-9" value="" style="endArrow=none;html=1;rounded=0;exitX=1;exitY=0;exitDx=0;exitDy=0;entryX=0;entryY=1;entryDx=0;entryDy=0;" parent="1" source="VL0wkUuo-9r3JbKDXi9r-5" target="VL0wkUuo-9r3JbKDXi9r-3" edge="1">
          <mxGeometry width="50" height="50" relative="1" as="geometry">
            <mxPoint x="390" y="630" as="sourcePoint" />
            <mxPoint x="440" y="580" as="targetPoint" />
          </mxGeometry>
        </mxCell>
        <mxCell id="VL0wkUuo-9r3JbKDXi9r-10" value="" style="endArrow=none;html=1;rounded=0;exitX=1;exitY=0.5;exitDx=0;exitDy=0;entryX=0;entryY=0.5;entryDx=0;entryDy=0;" parent="1" source="VL0wkUuo-9r3JbKDXi9r-5" target="VL0wkUuo-9r3JbKDXi9r-4" edge="1">
          <mxGeometry width="50" height="50" relative="1" as="geometry">
            <mxPoint x="390" y="630" as="sourcePoint" />
            <mxPoint x="440" y="580" as="targetPoint" />
          </mxGeometry>
        </mxCell>
        <mxCell id="VL0wkUuo-9r3JbKDXi9r-11" value="" style="endArrow=none;html=1;rounded=0;exitX=0.5;exitY=0;exitDx=0;exitDy=0;entryX=1;entryY=1;entryDx=0;entryDy=0;" parent="1" source="VL0wkUuo-9r3JbKDXi9r-3" target="VL0wkUuo-9r3JbKDXi9r-2" edge="1">
          <mxGeometry width="50" height="50" relative="1" as="geometry">
            <mxPoint x="390" y="630" as="sourcePoint" />
            <mxPoint x="440" y="580" as="targetPoint" />
          </mxGeometry>
        </mxCell>
        <mxCell id="VL0wkUuo-9r3JbKDXi9r-12" value="&lt;font style=&quot;font-size: 30px;&quot;&gt;$$p_6$$&lt;/font&gt;" style="ellipse;whiteSpace=wrap;html=1;aspect=fixed;fillColor=#FFFF00;" parent="1" vertex="1">
          <mxGeometry x="250" y="940" width="80" height="80" as="geometry" />
        </mxCell>
        <mxCell id="VL0wkUuo-9r3JbKDXi9r-13" value="" style="endArrow=none;html=1;rounded=0;exitX=0.5;exitY=1;exitDx=0;exitDy=0;entryX=0.5;entryY=0;entryDx=0;entryDy=0;" parent="1" source="VL0wkUuo-9r3JbKDXi9r-2" target="VL0wkUuo-9r3JbKDXi9r-12" edge="1">
          <mxGeometry width="50" height="50" relative="1" as="geometry">
            <mxPoint x="390" y="630" as="sourcePoint" />
            <mxPoint x="440" y="580" as="targetPoint" />
          </mxGeometry>
        </mxCell>
        <mxCell id="VL0wkUuo-9r3JbKDXi9r-14" value="" style="endArrow=none;html=1;rounded=0;exitX=0.5;exitY=1;exitDx=0;exitDy=0;entryX=0.5;entryY=0;entryDx=0;entryDy=0;" parent="1" source="VL0wkUuo-9r3JbKDXi9r-3" target="VL0wkUuo-9r3JbKDXi9r-4" edge="1">
          <mxGeometry width="50" height="50" relative="1" as="geometry">
            <mxPoint x="390" y="630" as="sourcePoint" />
            <mxPoint x="440" y="580" as="targetPoint" />
          </mxGeometry>
        </mxCell>
        <mxCell id="VL0wkUuo-9r3JbKDXi9r-16" value="&lt;font color=&quot;#000000&quot; style=&quot;font-size: 30px;&quot;&gt;$$c_1$$&lt;/font&gt;" style="whiteSpace=wrap;html=1;aspect=fixed;fillColor=#60a917;fontColor=#ffffff;strokeColor=#2D7600;" parent="1" vertex="1">
          <mxGeometry x="747" y="310" width="80" height="80" as="geometry" />
        </mxCell>
        <mxCell id="VL0wkUuo-9r3JbKDXi9r-17" value="&lt;font color=&quot;#000000&quot; style=&quot;font-size: 30px;&quot;&gt;$$c_3$$&lt;/font&gt;" style="whiteSpace=wrap;html=1;aspect=fixed;fillColor=#60a917;fontColor=#ffffff;strokeColor=#2D7600;" parent="1" vertex="1">
          <mxGeometry x="630" y="590" width="80" height="80" as="geometry" />
        </mxCell>
        <mxCell id="VL0wkUuo-9r3JbKDXi9r-18" value="&lt;font color=&quot;#000000&quot; style=&quot;font-size: 30px;&quot;&gt;$$c_2$$&lt;/font&gt;" style="whiteSpace=wrap;html=1;aspect=fixed;fillColor=#60a917;fontColor=#ffffff;strokeColor=#2D7600;" parent="1" vertex="1">
          <mxGeometry x="850" y="505" width="80" height="80" as="geometry" />
        </mxCell>
        <mxCell id="VL0wkUuo-9r3JbKDXi9r-19" value="&lt;font color=&quot;#000000&quot; style=&quot;font-size: 30px;&quot;&gt;$$c_4$$&lt;/font&gt;" style="whiteSpace=wrap;html=1;aspect=fixed;fillColor=#60a917;fontColor=#ffffff;strokeColor=#2D7600;" parent="1" vertex="1">
          <mxGeometry x="630" y="720" width="80" height="80" as="geometry" />
        </mxCell>
        <mxCell id="VL0wkUuo-9r3JbKDXi9r-20" value="&lt;font color=&quot;#000000&quot; style=&quot;font-size: 30px;&quot;&gt;$$c_5$$&lt;/font&gt;" style="whiteSpace=wrap;html=1;aspect=fixed;fillColor=#60a917;fontColor=#ffffff;strokeColor=#2D7600;" parent="1" vertex="1">
          <mxGeometry x="860" y="770" width="80" height="80" as="geometry" />
        </mxCell>
        <mxCell id="VL0wkUuo-9r3JbKDXi9r-21" value="&lt;font color=&quot;#000000&quot; style=&quot;font-size: 30px;&quot;&gt;$$c_6$$&lt;/font&gt;" style="whiteSpace=wrap;html=1;aspect=fixed;fillColor=#60a917;fontColor=#ffffff;strokeColor=#2D7600;" parent="1" vertex="1">
          <mxGeometry x="780" y="930" width="80" height="80" as="geometry" />
        </mxCell>
        <mxCell id="VL0wkUuo-9r3JbKDXi9r-23" value="" style="endArrow=none;html=1;rounded=0;exitX=0.5;exitY=1;exitDx=0;exitDy=0;entryX=0.5;entryY=0;entryDx=0;entryDy=0;" parent="1" source="VL0wkUuo-9r3JbKDXi9r-17" target="VL0wkUuo-9r3JbKDXi9r-19" edge="1">
          <mxGeometry width="50" height="50" relative="1" as="geometry">
            <mxPoint x="390" y="630" as="sourcePoint" />
            <mxPoint x="440" y="580" as="targetPoint" />
          </mxGeometry>
        </mxCell>
        <mxCell id="VL0wkUuo-9r3JbKDXi9r-24" value="" style="endArrow=none;html=1;rounded=0;exitX=0;exitY=0.5;exitDx=0;exitDy=0;entryX=1;entryY=0.5;entryDx=0;entryDy=0;" parent="1" source="VL0wkUuo-9r3JbKDXi9r-20" target="VL0wkUuo-9r3JbKDXi9r-19" edge="1">
          <mxGeometry width="50" height="50" relative="1" as="geometry">
            <mxPoint x="390" y="630" as="sourcePoint" />
            <mxPoint x="440" y="580" as="targetPoint" />
          </mxGeometry>
        </mxCell>
        <mxCell id="VL0wkUuo-9r3JbKDXi9r-25" value="" style="endArrow=none;html=1;rounded=0;exitX=0.5;exitY=1;exitDx=0;exitDy=0;entryX=0.5;entryY=0;entryDx=0;entryDy=0;" parent="1" source="VL0wkUuo-9r3JbKDXi9r-19" target="VL0wkUuo-9r3JbKDXi9r-21" edge="1">
          <mxGeometry width="50" height="50" relative="1" as="geometry">
            <mxPoint x="390" y="630" as="sourcePoint" />
            <mxPoint x="440" y="580" as="targetPoint" />
          </mxGeometry>
        </mxCell>
        <mxCell id="VL0wkUuo-9r3JbKDXi9r-26" value="" style="endArrow=none;html=1;rounded=0;exitX=0.5;exitY=1;exitDx=0;exitDy=0;entryX=0.5;entryY=0;entryDx=0;entryDy=0;" parent="1" source="VL0wkUuo-9r3JbKDXi9r-20" target="VL0wkUuo-9r3JbKDXi9r-21" edge="1">
          <mxGeometry width="50" height="50" relative="1" as="geometry">
            <mxPoint x="390" y="630" as="sourcePoint" />
            <mxPoint x="440" y="580" as="targetPoint" />
          </mxGeometry>
        </mxCell>
        <mxCell id="VL0wkUuo-9r3JbKDXi9r-27" value="" style="endArrow=none;html=1;rounded=0;exitX=0.5;exitY=1;exitDx=0;exitDy=0;entryX=0.5;entryY=0;entryDx=0;entryDy=0;" parent="1" source="VL0wkUuo-9r3JbKDXi9r-18" target="VL0wkUuo-9r3JbKDXi9r-20" edge="1">
          <mxGeometry width="50" height="50" relative="1" as="geometry">
            <mxPoint x="390" y="630" as="sourcePoint" />
            <mxPoint x="440" y="580" as="targetPoint" />
          </mxGeometry>
        </mxCell>
        <mxCell id="VL0wkUuo-9r3JbKDXi9r-28" value="" style="endArrow=none;html=1;rounded=0;exitX=0.5;exitY=1;exitDx=0;exitDy=0;entryX=0.5;entryY=0;entryDx=0;entryDy=0;" parent="1" source="VL0wkUuo-9r3JbKDXi9r-16" target="VL0wkUuo-9r3JbKDXi9r-17" edge="1">
          <mxGeometry width="50" height="50" relative="1" as="geometry">
            <mxPoint x="390" y="630" as="sourcePoint" />
            <mxPoint x="440" y="580" as="targetPoint" />
          </mxGeometry>
        </mxCell>
        <mxCell id="VL0wkUuo-9r3JbKDXi9r-29" value="" style="endArrow=none;html=1;rounded=0;exitX=0.5;exitY=1;exitDx=0;exitDy=0;entryX=0.5;entryY=0;entryDx=0;entryDy=0;" parent="1" source="VL0wkUuo-9r3JbKDXi9r-16" target="VL0wkUuo-9r3JbKDXi9r-18" edge="1">
          <mxGeometry width="50" height="50" relative="1" as="geometry">
            <mxPoint x="390" y="630" as="sourcePoint" />
            <mxPoint x="440" y="580" as="targetPoint" />
          </mxGeometry>
        </mxCell>
        <mxCell id="VL0wkUuo-9r3JbKDXi9r-30" value="" style="endArrow=none;html=1;rounded=0;exitX=1;exitY=0.5;exitDx=0;exitDy=0;entryX=0;entryY=0.5;entryDx=0;entryDy=0;" parent="1" source="VL0wkUuo-9r3JbKDXi9r-17" target="VL0wkUuo-9r3JbKDXi9r-18" edge="1">
          <mxGeometry width="50" height="50" relative="1" as="geometry">
            <mxPoint x="390" y="630" as="sourcePoint" />
            <mxPoint x="440" y="580" as="targetPoint" />
          </mxGeometry>
        </mxCell>
        <mxCell id="VL0wkUuo-9r3JbKDXi9r-31" value="" style="endArrow=classic;html=1;rounded=0;entryX=0;entryY=0.5;entryDx=0;entryDy=0;exitX=1;exitY=0.5;exitDx=0;exitDy=0;fillColor=#e51400;strokeColor=#FF0000;jumpSize=6;" parent="1" source="VL0wkUuo-9r3JbKDXi9r-5" target="VL0wkUuo-9r3JbKDXi9r-17" edge="1">
          <mxGeometry width="50" height="50" relative="1" as="geometry">
            <mxPoint x="390" y="630" as="sourcePoint" />
            <mxPoint x="440" y="580" as="targetPoint" />
          </mxGeometry>
        </mxCell>
        <mxCell id="VL0wkUuo-9r3JbKDXi9r-32" value="" style="endArrow=classic;html=1;rounded=0;entryX=0;entryY=0.5;entryDx=0;entryDy=0;exitX=1;exitY=0.5;exitDx=0;exitDy=0;fillColor=#e51400;strokeColor=#FF0000;jumpSize=6;" parent="1" source="VL0wkUuo-9r3JbKDXi9r-12" target="VL0wkUuo-9r3JbKDXi9r-21" edge="1">
          <mxGeometry width="50" height="50" relative="1" as="geometry">
            <mxPoint x="270" y="740" as="sourcePoint" />
            <mxPoint x="640" y="595" as="targetPoint" />
          </mxGeometry>
        </mxCell>
        <mxCell id="VL0wkUuo-9r3JbKDXi9r-33" value="" style="endArrow=classic;html=1;rounded=0;entryX=0;entryY=0.5;entryDx=0;entryDy=0;exitX=1;exitY=0.5;exitDx=0;exitDy=0;fillColor=#e51400;strokeColor=#FF0000;jumpSize=6;" parent="1" source="VL0wkUuo-9r3JbKDXi9r-4" target="VL0wkUuo-9r3JbKDXi9r-20" edge="1">
          <mxGeometry width="50" height="50" relative="1" as="geometry">
            <mxPoint x="280" y="750" as="sourcePoint" />
            <mxPoint x="650" y="605" as="targetPoint" />
          </mxGeometry>
        </mxCell>
        <mxCell id="VL0wkUuo-9r3JbKDXi9r-34" value="" style="endArrow=classic;html=1;rounded=0;entryX=0.5;entryY=1;entryDx=0;entryDy=0;exitX=1;exitY=0.5;exitDx=0;exitDy=0;fillColor=#e51400;strokeColor=#FF0000;jumpSize=6;" parent="1" source="VL0wkUuo-9r3JbKDXi9r-12" target="VL0wkUuo-9r3JbKDXi9r-19" edge="1">
          <mxGeometry width="50" height="50" relative="1" as="geometry">
            <mxPoint x="290" y="760" as="sourcePoint" />
            <mxPoint x="660" y="615" as="targetPoint" />
          </mxGeometry>
        </mxCell>
        <mxCell id="VL0wkUuo-9r3JbKDXi9r-35" value="" style="endArrow=classic;html=1;rounded=0;entryX=0;entryY=0.5;entryDx=0;entryDy=0;exitX=1;exitY=0.5;exitDx=0;exitDy=0;fillColor=#e51400;strokeColor=#FF0000;jumpSize=6;" parent="1" source="VL0wkUuo-9r3JbKDXi9r-3" target="VL0wkUuo-9r3JbKDXi9r-18" edge="1">
          <mxGeometry width="50" height="50" relative="1" as="geometry">
            <mxPoint x="300" y="770" as="sourcePoint" />
            <mxPoint x="670" y="625" as="targetPoint" />
          </mxGeometry>
        </mxCell>
        <mxCell id="VL0wkUuo-9r3JbKDXi9r-36" value="" style="endArrow=classic;html=1;rounded=0;entryX=0;entryY=0.5;entryDx=0;entryDy=0;exitX=1;exitY=0.5;exitDx=0;exitDy=0;fillColor=#e51400;strokeColor=#FF0000;jumpSize=6;" parent="1" source="VL0wkUuo-9r3JbKDXi9r-6" target="VL0wkUuo-9r3JbKDXi9r-16" edge="1">
          <mxGeometry width="50" height="50" relative="1" as="geometry">
            <mxPoint x="310" y="780" as="sourcePoint" />
            <mxPoint x="680" y="635" as="targetPoint" />
          </mxGeometry>
        </mxCell>
        <mxCell id="VL0wkUuo-9r3JbKDXi9r-37" value="" style="endArrow=classic;html=1;rounded=0;entryX=0;entryY=0.5;entryDx=0;entryDy=0;exitX=1;exitY=0.5;exitDx=0;exitDy=0;fillColor=#e51400;strokeColor=#FF0000;jumpSize=6;" parent="1" source="VL0wkUuo-9r3JbKDXi9r-2" target="VL0wkUuo-9r3JbKDXi9r-19" edge="1">
          <mxGeometry width="50" height="50" relative="1" as="geometry">
            <mxPoint x="320" y="790" as="sourcePoint" />
            <mxPoint x="690" y="645" as="targetPoint" />
          </mxGeometry>
        </mxCell>
        <mxCell id="VL0wkUuo-9r3JbKDXi9r-38" value="" style="shape=flexArrow;endArrow=classic;html=1;rounded=0;exitX=0;exitY=0.75;exitDx=0;exitDy=0;entryX=1;entryY=1;entryDx=0;entryDy=0;fillColor=#27CBE4;strokeColor=#001DBC;" parent="1" source="VL0wkUuo-9r3JbKDXi9r-21" target="VL0wkUuo-9r3JbKDXi9r-12" edge="1">
          <mxGeometry width="50" height="50" relative="1" as="geometry">
            <mxPoint x="390" y="730" as="sourcePoint" />
            <mxPoint x="440" y="680" as="targetPoint" />
          </mxGeometry>
        </mxCell>
        <mxCell id="VL0wkUuo-9r3JbKDXi9r-39" value="" style="shape=flexArrow;endArrow=classic;html=1;rounded=0;exitX=0;exitY=0.75;exitDx=0;exitDy=0;entryX=1;entryY=1;entryDx=0;entryDy=0;fillColor=#27CBE4;strokeColor=#001DBC;" parent="1" source="VL0wkUuo-9r3JbKDXi9r-20" target="VL0wkUuo-9r3JbKDXi9r-4" edge="1">
          <mxGeometry width="50" height="50" relative="1" as="geometry">
            <mxPoint x="790" y="1000" as="sourcePoint" />
            <mxPoint x="328" y="1018" as="targetPoint" />
          </mxGeometry>
        </mxCell>
        <mxCell id="VL0wkUuo-9r3JbKDXi9r-40" value="" style="shape=flexArrow;endArrow=classic;html=1;rounded=0;exitX=0;exitY=0.75;exitDx=0;exitDy=0;entryX=1;entryY=1;entryDx=0;entryDy=0;fillColor=#27CBE4;strokeColor=#001DBC;" parent="1" source="VL0wkUuo-9r3JbKDXi9r-19" target="VL0wkUuo-9r3JbKDXi9r-5" edge="1">
          <mxGeometry width="50" height="50" relative="1" as="geometry">
            <mxPoint x="800" y="1010" as="sourcePoint" />
            <mxPoint x="338" y="1028" as="targetPoint" />
          </mxGeometry>
        </mxCell>
        <mxCell id="VL0wkUuo-9r3JbKDXi9r-41" value="" style="shape=flexArrow;endArrow=classic;html=1;rounded=0;exitX=0;exitY=0.25;exitDx=0;exitDy=0;entryX=1;entryY=1;entryDx=0;entryDy=0;fillColor=#27CBE4;strokeColor=#001DBC;" parent="1" source="VL0wkUuo-9r3JbKDXi9r-17" target="VL0wkUuo-9r3JbKDXi9r-3" edge="1">
          <mxGeometry width="50" height="50" relative="1" as="geometry">
            <mxPoint x="810" y="1020" as="sourcePoint" />
            <mxPoint x="348" y="1038" as="targetPoint" />
          </mxGeometry>
        </mxCell>
        <mxCell id="VL0wkUuo-9r3JbKDXi9r-43" value="" style="shape=flexArrow;endArrow=classic;html=1;rounded=0;exitX=0;exitY=0.25;exitDx=0;exitDy=0;entryX=1;entryY=1;entryDx=0;entryDy=0;fillColor=#27CBE4;strokeColor=#001DBC;" parent="1" source="VL0wkUuo-9r3JbKDXi9r-18" target="VL0wkUuo-9r3JbKDXi9r-6" edge="1">
          <mxGeometry width="50" height="50" relative="1" as="geometry">
            <mxPoint x="820" y="1030" as="sourcePoint" />
            <mxPoint x="358" y="1048" as="targetPoint" />
          </mxGeometry>
        </mxCell>
        <mxCell id="VL0wkUuo-9r3JbKDXi9r-44" value="" style="shape=flexArrow;endArrow=classic;html=1;rounded=0;exitX=0;exitY=0.25;exitDx=0;exitDy=0;entryX=1;entryY=0;entryDx=0;entryDy=0;fillColor=#27CBE4;strokeColor=#001DBC;" parent="1" source="VL0wkUuo-9r3JbKDXi9r-16" target="VL0wkUuo-9r3JbKDXi9r-2" edge="1">
          <mxGeometry width="50" height="50" relative="1" as="geometry">
            <mxPoint x="830" y="1040" as="sourcePoint" />
            <mxPoint x="368" y="1058" as="targetPoint" />
          </mxGeometry>
        </mxCell>
        <mxCell id="VL0wkUuo-9r3JbKDXi9r-61" value="" style="group" parent="1" vertex="1" connectable="0">
          <mxGeometry x="-226.9985424949238" y="360.0014575050762" width="226.5685424949238" height="661.5685424949238" as="geometry" />
        </mxCell>
        <mxCell id="VL0wkUuo-9r3JbKDXi9r-45" value="" style="rounded=0;whiteSpace=wrap;html=1;" parent="VL0wkUuo-9r3JbKDXi9r-61" vertex="1">
          <mxGeometry x="6.568542494923804" y="11.568542494923804" width="220" height="650" as="geometry" />
        </mxCell>
        <mxCell id="VL0wkUuo-9r3JbKDXi9r-47" value="Initial power failure" style="text;html=1;strokeColor=none;fillColor=none;align=center;verticalAlign=middle;whiteSpace=wrap;rounded=0;" parent="VL0wkUuo-9r3JbKDXi9r-61" vertex="1">
          <mxGeometry x="116.5685424949238" y="41.568542494923804" width="60" height="30" as="geometry" />
        </mxCell>
        <mxCell id="VL0wkUuo-9r3JbKDXi9r-48" value="Initial attack" style="text;html=1;strokeColor=none;fillColor=none;align=center;verticalAlign=middle;whiteSpace=wrap;rounded=0;" parent="VL0wkUuo-9r3JbKDXi9r-61" vertex="1">
          <mxGeometry x="116.5685424949238" y="131.5685424949238" width="60" height="30" as="geometry" />
        </mxCell>
        <mxCell id="VL0wkUuo-9r3JbKDXi9r-49" value="Working physical node" style="text;html=1;strokeColor=none;fillColor=none;align=center;verticalAlign=middle;whiteSpace=wrap;rounded=0;" parent="VL0wkUuo-9r3JbKDXi9r-61" vertex="1">
          <mxGeometry x="116.5685424949238" y="221.5685424949238" width="60" height="30" as="geometry" />
        </mxCell>
        <mxCell id="VL0wkUuo-9r3JbKDXi9r-50" value="Working cyber node" style="text;html=1;strokeColor=none;fillColor=none;align=center;verticalAlign=middle;whiteSpace=wrap;rounded=0;" parent="VL0wkUuo-9r3JbKDXi9r-61" vertex="1">
          <mxGeometry x="116.5685424949238" y="311.5685424949238" width="60" height="30" as="geometry" />
        </mxCell>
        <mxCell id="VL0wkUuo-9r3JbKDXi9r-51" value="Failed physical node" style="text;html=1;strokeColor=none;fillColor=none;align=center;verticalAlign=middle;whiteSpace=wrap;rounded=0;" parent="VL0wkUuo-9r3JbKDXi9r-61" vertex="1">
          <mxGeometry x="116.5685424949238" y="401.5685424949238" width="60" height="30" as="geometry" />
        </mxCell>
        <mxCell id="VL0wkUuo-9r3JbKDXi9r-52" value="Infected cyber node" style="text;html=1;strokeColor=none;fillColor=none;align=center;verticalAlign=middle;whiteSpace=wrap;rounded=0;" parent="VL0wkUuo-9r3JbKDXi9r-61" vertex="1">
          <mxGeometry x="116.5685424949238" y="491.5685424949238" width="60" height="30" as="geometry" />
        </mxCell>
        <mxCell id="VL0wkUuo-9r3JbKDXi9r-53" value="Failed cyber node" style="text;html=1;strokeColor=none;fillColor=none;align=center;verticalAlign=middle;whiteSpace=wrap;rounded=0;" parent="VL0wkUuo-9r3JbKDXi9r-61" vertex="1">
          <mxGeometry x="116.5685424949238" y="581.5685424949238" width="60" height="30" as="geometry" />
        </mxCell>
        <mxCell id="VL0wkUuo-9r3JbKDXi9r-54" value="" style="ellipse;whiteSpace=wrap;html=1;aspect=fixed;fillColor=#FFFF00;" parent="VL0wkUuo-9r3JbKDXi9r-61" vertex="1">
          <mxGeometry x="16.568542494923804" y="196.5685424949238" width="80" height="80" as="geometry" />
        </mxCell>
        <mxCell id="VL0wkUuo-9r3JbKDXi9r-55" value="" style="whiteSpace=wrap;html=1;aspect=fixed;fillColor=#60a917;fontColor=#ffffff;strokeColor=#2D7600;" parent="VL0wkUuo-9r3JbKDXi9r-61" vertex="1">
          <mxGeometry x="16.568542494923804" y="286.5685424949238" width="80" height="80" as="geometry" />
        </mxCell>
        <mxCell id="VL0wkUuo-9r3JbKDXi9r-56" value="" style="ellipse;whiteSpace=wrap;html=1;aspect=fixed;fillColor=#000000;" parent="VL0wkUuo-9r3JbKDXi9r-61" vertex="1">
          <mxGeometry x="16.568542494923804" y="376.5685424949238" width="80" height="80" as="geometry" />
        </mxCell>
        <mxCell id="VL0wkUuo-9r3JbKDXi9r-57" value="" style="whiteSpace=wrap;html=1;aspect=fixed;fillColor=#FF0000;fontColor=#ffffff;strokeColor=#2D7600;" parent="VL0wkUuo-9r3JbKDXi9r-61" vertex="1">
          <mxGeometry x="16.568542494923804" y="466.5685424949238" width="80" height="80" as="geometry" />
        </mxCell>
        <mxCell id="VL0wkUuo-9r3JbKDXi9r-58" value="" style="whiteSpace=wrap;html=1;aspect=fixed;fillColor=#000000;fontColor=#ffffff;strokeColor=#2D7600;" parent="VL0wkUuo-9r3JbKDXi9r-61" vertex="1">
          <mxGeometry x="16.568542494923804" y="556.5685424949238" width="80" height="80" as="geometry" />
        </mxCell>
        <mxCell id="VL0wkUuo-9r3JbKDXi9r-59" value="" style="shape=cross;whiteSpace=wrap;html=1;rotation=45;strokeColor=#FF0000;fillColor=#FF0000;" parent="VL0wkUuo-9r3JbKDXi9r-61" vertex="1">
          <mxGeometry x="16.568542494923804" y="16.568542494923804" width="80" height="80" as="geometry" />
        </mxCell>
        <mxCell id="VL0wkUuo-9r3JbKDXi9r-60" value="" style="shape=singleArrow;direction=south;whiteSpace=wrap;html=1;strokeColor=#FF0000;fillColor=#FF0000;" parent="VL0wkUuo-9r3JbKDXi9r-61" vertex="1">
          <mxGeometry x="16.568542494923804" y="106.5685424949238" width="80" height="80" as="geometry" />
        </mxCell>
        <mxCell id="VL0wkUuo-9r3JbKDXi9r-62" value="" style="shape=flexArrow;endArrow=classic;html=1;rounded=0;fillColor=#27CBE4;strokeColor=#001DBC;" parent="1" edge="1">
          <mxGeometry width="50" height="50" relative="1" as="geometry">
            <mxPoint x="560" y="1100" as="sourcePoint" />
            <mxPoint x="360" y="1100" as="targetPoint" />
          </mxGeometry>
        </mxCell>
        <mxCell id="VL0wkUuo-9r3JbKDXi9r-63" value="" style="endArrow=classic;html=1;rounded=0;exitX=1;exitY=0.5;exitDx=0;exitDy=0;fillColor=#e51400;strokeColor=#FF0000;jumpSize=6;" parent="1" edge="1">
          <mxGeometry width="50" height="50" relative="1" as="geometry">
            <mxPoint x="360" y="1070" as="sourcePoint" />
            <mxPoint x="560" y="1070" as="targetPoint" />
          </mxGeometry>
        </mxCell>
        <mxCell id="VL0wkUuo-9r3JbKDXi9r-64" value="" style="endArrow=none;html=1;rounded=0;" parent="1" edge="1">
          <mxGeometry width="50" height="50" relative="1" as="geometry">
            <mxPoint x="360" y="1130" as="sourcePoint" />
            <mxPoint x="560" y="1130" as="targetPoint" />
          </mxGeometry>
        </mxCell>
        <mxCell id="VL0wkUuo-9r3JbKDXi9r-65" value="Support line" style="text;html=1;strokeColor=none;fillColor=none;align=center;verticalAlign=middle;whiteSpace=wrap;rounded=0;" parent="1" vertex="1">
          <mxGeometry x="270" y="1055" width="80" height="30" as="geometry" />
        </mxCell>
        <mxCell id="VL0wkUuo-9r3JbKDXi9r-66" value="Control line" style="text;html=1;strokeColor=none;fillColor=none;align=center;verticalAlign=middle;whiteSpace=wrap;rounded=0;" parent="1" vertex="1">
          <mxGeometry x="270" y="1085" width="80" height="30" as="geometry" />
        </mxCell>
        <mxCell id="VL0wkUuo-9r3JbKDXi9r-67" value="intra-network link" style="text;html=1;strokeColor=none;fillColor=none;align=center;verticalAlign=middle;whiteSpace=wrap;rounded=0;" parent="1" vertex="1">
          <mxGeometry x="245" y="1115" width="100" height="30" as="geometry" />
        </mxCell>
        <mxCell id="_vr9zyarAjqqRt6KFrDL-1" value="&lt;font style=&quot;font-size: 30px;&quot;&gt;$$p_1$$&lt;/font&gt;" style="ellipse;whiteSpace=wrap;html=1;aspect=fixed;fillColor=#FFFF00;" vertex="1" parent="1">
          <mxGeometry x="1210" y="400" width="80" height="80" as="geometry" />
        </mxCell>
        <mxCell id="_vr9zyarAjqqRt6KFrDL-2" value="&lt;font style=&quot;font-size: 30px;&quot;&gt;$$p_3$$&lt;/font&gt;" style="ellipse;whiteSpace=wrap;html=1;aspect=fixed;fillColor=#FFFF00;" vertex="1" parent="1">
          <mxGeometry x="1280" y="560" width="80" height="80" as="geometry" />
        </mxCell>
        <mxCell id="_vr9zyarAjqqRt6KFrDL-3" value="&lt;font style=&quot;font-size: 30px;&quot;&gt;$$p_5$$&lt;/font&gt;" style="ellipse;whiteSpace=wrap;html=1;aspect=fixed;fillColor=#FFFF00;" vertex="1" parent="1">
          <mxGeometry x="1294" y="810" width="80" height="80" as="geometry" />
        </mxCell>
        <mxCell id="_vr9zyarAjqqRt6KFrDL-4" value="&lt;font style=&quot;font-size: 30px;&quot;&gt;$$p_4$$&lt;/font&gt;" style="ellipse;whiteSpace=wrap;html=1;aspect=fixed;fillColor=#FFFF00;" vertex="1" parent="1">
          <mxGeometry x="1060" y="710" width="80" height="80" as="geometry" />
        </mxCell>
        <mxCell id="_vr9zyarAjqqRt6KFrDL-5" value="&lt;font style=&quot;font-size: 30px;&quot;&gt;$$p_2$$&lt;/font&gt;" style="ellipse;whiteSpace=wrap;html=1;aspect=fixed;fillColor=#FFFF00;" vertex="1" parent="1">
          <mxGeometry x="1070" y="489.99999999999994" width="80" height="80" as="geometry" />
        </mxCell>
        <mxCell id="_vr9zyarAjqqRt6KFrDL-6" value="" style="endArrow=none;html=1;rounded=0;exitX=1;exitY=0;exitDx=0;exitDy=0;entryX=0;entryY=1;entryDx=0;entryDy=0;" edge="1" parent="1" source="_vr9zyarAjqqRt6KFrDL-5" target="_vr9zyarAjqqRt6KFrDL-1">
          <mxGeometry width="50" height="50" relative="1" as="geometry">
            <mxPoint x="1310" y="620" as="sourcePoint" />
            <mxPoint x="1360" y="570" as="targetPoint" />
          </mxGeometry>
        </mxCell>
        <mxCell id="_vr9zyarAjqqRt6KFrDL-84" value="$$w_{1,2}$$" style="edgeLabel;html=1;align=center;verticalAlign=middle;resizable=0;points=[];labelBackgroundColor=none;" vertex="1" connectable="0" parent="_vr9zyarAjqqRt6KFrDL-6">
          <mxGeometry x="0.2095" y="-3" relative="1" as="geometry">
            <mxPoint y="6" as="offset" />
          </mxGeometry>
        </mxCell>
        <mxCell id="_vr9zyarAjqqRt6KFrDL-7" value="" style="endArrow=none;html=1;rounded=0;exitX=0;exitY=0;exitDx=0;exitDy=0;entryX=0.5;entryY=1;entryDx=0;entryDy=0;" edge="1" parent="1" source="_vr9zyarAjqqRt6KFrDL-4" target="_vr9zyarAjqqRt6KFrDL-5">
          <mxGeometry width="50" height="50" relative="1" as="geometry">
            <mxPoint x="1310" y="620" as="sourcePoint" />
            <mxPoint x="1360" y="570" as="targetPoint" />
          </mxGeometry>
        </mxCell>
        <mxCell id="_vr9zyarAjqqRt6KFrDL-8" value="" style="endArrow=none;html=1;rounded=0;exitX=1;exitY=0;exitDx=0;exitDy=0;entryX=0;entryY=1;entryDx=0;entryDy=0;" edge="1" parent="1" source="_vr9zyarAjqqRt6KFrDL-4" target="_vr9zyarAjqqRt6KFrDL-2">
          <mxGeometry width="50" height="50" relative="1" as="geometry">
            <mxPoint x="1310" y="620" as="sourcePoint" />
            <mxPoint x="1360" y="570" as="targetPoint" />
          </mxGeometry>
        </mxCell>
        <mxCell id="_vr9zyarAjqqRt6KFrDL-9" value="" style="endArrow=none;html=1;rounded=0;exitX=1;exitY=0.5;exitDx=0;exitDy=0;entryX=0;entryY=0.5;entryDx=0;entryDy=0;" edge="1" parent="1" source="_vr9zyarAjqqRt6KFrDL-4" target="_vr9zyarAjqqRt6KFrDL-3">
          <mxGeometry width="50" height="50" relative="1" as="geometry">
            <mxPoint x="1310" y="620" as="sourcePoint" />
            <mxPoint x="1360" y="570" as="targetPoint" />
          </mxGeometry>
        </mxCell>
        <mxCell id="_vr9zyarAjqqRt6KFrDL-10" value="" style="endArrow=none;html=1;rounded=0;exitX=0.5;exitY=0;exitDx=0;exitDy=0;entryX=1;entryY=1;entryDx=0;entryDy=0;" edge="1" parent="1" source="_vr9zyarAjqqRt6KFrDL-2" target="_vr9zyarAjqqRt6KFrDL-1">
          <mxGeometry width="50" height="50" relative="1" as="geometry">
            <mxPoint x="1310" y="620" as="sourcePoint" />
            <mxPoint x="1360" y="570" as="targetPoint" />
          </mxGeometry>
        </mxCell>
        <mxCell id="_vr9zyarAjqqRt6KFrDL-11" value="&lt;font style=&quot;font-size: 30px;&quot;&gt;$$p_6$$&lt;/font&gt;" style="ellipse;whiteSpace=wrap;html=1;aspect=fixed;fillColor=#FFFF00;" vertex="1" parent="1">
          <mxGeometry x="1170" y="930" width="80" height="80" as="geometry" />
        </mxCell>
        <mxCell id="_vr9zyarAjqqRt6KFrDL-12" value="" style="endArrow=none;html=1;rounded=0;exitX=0.5;exitY=1;exitDx=0;exitDy=0;entryX=0.5;entryY=0;entryDx=0;entryDy=0;" edge="1" parent="1" source="_vr9zyarAjqqRt6KFrDL-1" target="_vr9zyarAjqqRt6KFrDL-11">
          <mxGeometry width="50" height="50" relative="1" as="geometry">
            <mxPoint x="1310" y="620" as="sourcePoint" />
            <mxPoint x="1360" y="570" as="targetPoint" />
          </mxGeometry>
        </mxCell>
        <mxCell id="_vr9zyarAjqqRt6KFrDL-13" value="" style="endArrow=none;html=1;rounded=0;exitX=0.5;exitY=1;exitDx=0;exitDy=0;entryX=0.5;entryY=0;entryDx=0;entryDy=0;" edge="1" parent="1" source="_vr9zyarAjqqRt6KFrDL-2" target="_vr9zyarAjqqRt6KFrDL-3">
          <mxGeometry width="50" height="50" relative="1" as="geometry">
            <mxPoint x="1310" y="620" as="sourcePoint" />
            <mxPoint x="1360" y="570" as="targetPoint" />
          </mxGeometry>
        </mxCell>
        <mxCell id="_vr9zyarAjqqRt6KFrDL-14" value="&lt;font color=&quot;#000000&quot; style=&quot;font-size: 30px;&quot;&gt;$$c_1$$&lt;/font&gt;" style="whiteSpace=wrap;html=1;aspect=fixed;fillColor=#60a917;fontColor=#ffffff;strokeColor=#2D7600;" vertex="1" parent="1">
          <mxGeometry x="1667" y="300" width="80" height="80" as="geometry" />
        </mxCell>
        <mxCell id="_vr9zyarAjqqRt6KFrDL-15" value="&lt;font color=&quot;#000000&quot; style=&quot;font-size: 30px;&quot;&gt;$$c_3$$&lt;/font&gt;" style="whiteSpace=wrap;html=1;aspect=fixed;fillColor=#60a917;fontColor=#ffffff;strokeColor=#2D7600;" vertex="1" parent="1">
          <mxGeometry x="1550" y="580" width="80" height="80" as="geometry" />
        </mxCell>
        <mxCell id="_vr9zyarAjqqRt6KFrDL-16" value="&lt;font color=&quot;#000000&quot; style=&quot;font-size: 30px;&quot;&gt;$$c_2$$&lt;/font&gt;" style="whiteSpace=wrap;html=1;aspect=fixed;fillColor=#60a917;fontColor=#ffffff;strokeColor=#2D7600;" vertex="1" parent="1">
          <mxGeometry x="1770" y="494.99999999999994" width="80" height="80" as="geometry" />
        </mxCell>
        <mxCell id="_vr9zyarAjqqRt6KFrDL-17" value="&lt;font color=&quot;#000000&quot; style=&quot;font-size: 30px;&quot;&gt;$$c_4$$&lt;/font&gt;" style="whiteSpace=wrap;html=1;aspect=fixed;fillColor=#60a917;fontColor=#ffffff;strokeColor=#2D7600;" vertex="1" parent="1">
          <mxGeometry x="1550" y="710" width="80" height="80" as="geometry" />
        </mxCell>
        <mxCell id="_vr9zyarAjqqRt6KFrDL-18" value="&lt;font color=&quot;#000000&quot; style=&quot;font-size: 30px;&quot;&gt;$$c_5$$&lt;/font&gt;" style="whiteSpace=wrap;html=1;aspect=fixed;fillColor=#60a917;fontColor=#ffffff;strokeColor=#2D7600;" vertex="1" parent="1">
          <mxGeometry x="1780" y="760" width="80" height="80" as="geometry" />
        </mxCell>
        <mxCell id="_vr9zyarAjqqRt6KFrDL-19" value="&lt;font color=&quot;#000000&quot; style=&quot;font-size: 30px;&quot;&gt;$$c_6$$&lt;/font&gt;" style="whiteSpace=wrap;html=1;aspect=fixed;fillColor=#60a917;fontColor=#ffffff;strokeColor=#2D7600;" vertex="1" parent="1">
          <mxGeometry x="1700" y="920" width="80" height="80" as="geometry" />
        </mxCell>
        <mxCell id="_vr9zyarAjqqRt6KFrDL-20" value="" style="endArrow=none;html=1;rounded=0;exitX=0.5;exitY=1;exitDx=0;exitDy=0;entryX=0.5;entryY=0;entryDx=0;entryDy=0;" edge="1" parent="1" source="_vr9zyarAjqqRt6KFrDL-15" target="_vr9zyarAjqqRt6KFrDL-17">
          <mxGeometry width="50" height="50" relative="1" as="geometry">
            <mxPoint x="1310" y="620" as="sourcePoint" />
            <mxPoint x="1360" y="570" as="targetPoint" />
          </mxGeometry>
        </mxCell>
        <mxCell id="_vr9zyarAjqqRt6KFrDL-21" value="" style="endArrow=none;html=1;rounded=0;exitX=0;exitY=0.5;exitDx=0;exitDy=0;entryX=1;entryY=0.5;entryDx=0;entryDy=0;" edge="1" parent="1" source="_vr9zyarAjqqRt6KFrDL-18" target="_vr9zyarAjqqRt6KFrDL-17">
          <mxGeometry width="50" height="50" relative="1" as="geometry">
            <mxPoint x="1310" y="620" as="sourcePoint" />
            <mxPoint x="1360" y="570" as="targetPoint" />
          </mxGeometry>
        </mxCell>
        <mxCell id="_vr9zyarAjqqRt6KFrDL-22" value="" style="endArrow=none;html=1;rounded=0;exitX=0.5;exitY=1;exitDx=0;exitDy=0;entryX=0.5;entryY=0;entryDx=0;entryDy=0;" edge="1" parent="1" source="_vr9zyarAjqqRt6KFrDL-17" target="_vr9zyarAjqqRt6KFrDL-19">
          <mxGeometry width="50" height="50" relative="1" as="geometry">
            <mxPoint x="1310" y="620" as="sourcePoint" />
            <mxPoint x="1360" y="570" as="targetPoint" />
          </mxGeometry>
        </mxCell>
        <mxCell id="_vr9zyarAjqqRt6KFrDL-23" value="" style="endArrow=none;html=1;rounded=0;exitX=0.5;exitY=1;exitDx=0;exitDy=0;entryX=0.5;entryY=0;entryDx=0;entryDy=0;" edge="1" parent="1" source="_vr9zyarAjqqRt6KFrDL-18" target="_vr9zyarAjqqRt6KFrDL-19">
          <mxGeometry width="50" height="50" relative="1" as="geometry">
            <mxPoint x="1310" y="620" as="sourcePoint" />
            <mxPoint x="1360" y="570" as="targetPoint" />
          </mxGeometry>
        </mxCell>
        <mxCell id="_vr9zyarAjqqRt6KFrDL-24" value="" style="endArrow=none;html=1;rounded=0;exitX=0.5;exitY=1;exitDx=0;exitDy=0;entryX=0.5;entryY=0;entryDx=0;entryDy=0;" edge="1" parent="1" source="_vr9zyarAjqqRt6KFrDL-16" target="_vr9zyarAjqqRt6KFrDL-18">
          <mxGeometry width="50" height="50" relative="1" as="geometry">
            <mxPoint x="1310" y="620" as="sourcePoint" />
            <mxPoint x="1360" y="570" as="targetPoint" />
          </mxGeometry>
        </mxCell>
        <mxCell id="_vr9zyarAjqqRt6KFrDL-25" value="" style="endArrow=none;html=1;rounded=0;exitX=0.5;exitY=1;exitDx=0;exitDy=0;entryX=0.5;entryY=0;entryDx=0;entryDy=0;" edge="1" parent="1" source="_vr9zyarAjqqRt6KFrDL-14" target="_vr9zyarAjqqRt6KFrDL-15">
          <mxGeometry width="50" height="50" relative="1" as="geometry">
            <mxPoint x="1310" y="620" as="sourcePoint" />
            <mxPoint x="1360" y="570" as="targetPoint" />
          </mxGeometry>
        </mxCell>
        <mxCell id="_vr9zyarAjqqRt6KFrDL-26" value="" style="endArrow=none;html=1;rounded=0;exitX=0.5;exitY=1;exitDx=0;exitDy=0;entryX=0.5;entryY=0;entryDx=0;entryDy=0;" edge="1" parent="1" source="_vr9zyarAjqqRt6KFrDL-14" target="_vr9zyarAjqqRt6KFrDL-16">
          <mxGeometry width="50" height="50" relative="1" as="geometry">
            <mxPoint x="1310" y="620" as="sourcePoint" />
            <mxPoint x="1360" y="570" as="targetPoint" />
          </mxGeometry>
        </mxCell>
        <mxCell id="_vr9zyarAjqqRt6KFrDL-27" value="" style="endArrow=none;html=1;rounded=0;exitX=1;exitY=0.5;exitDx=0;exitDy=0;entryX=0;entryY=0.5;entryDx=0;entryDy=0;" edge="1" parent="1" source="_vr9zyarAjqqRt6KFrDL-15" target="_vr9zyarAjqqRt6KFrDL-16">
          <mxGeometry width="50" height="50" relative="1" as="geometry">
            <mxPoint x="1310" y="620" as="sourcePoint" />
            <mxPoint x="1360" y="570" as="targetPoint" />
          </mxGeometry>
        </mxCell>
        <mxCell id="_vr9zyarAjqqRt6KFrDL-28" value="" style="endArrow=classic;html=1;rounded=0;entryX=0;entryY=0.5;entryDx=0;entryDy=0;exitX=1;exitY=0.5;exitDx=0;exitDy=0;fillColor=#e51400;strokeColor=#FF0000;jumpSize=6;" edge="1" parent="1" source="_vr9zyarAjqqRt6KFrDL-4" target="_vr9zyarAjqqRt6KFrDL-15">
          <mxGeometry width="50" height="50" relative="1" as="geometry">
            <mxPoint x="1310" y="620" as="sourcePoint" />
            <mxPoint x="1360" y="570" as="targetPoint" />
          </mxGeometry>
        </mxCell>
        <mxCell id="_vr9zyarAjqqRt6KFrDL-29" value="" style="endArrow=classic;html=1;rounded=0;entryX=0;entryY=0.5;entryDx=0;entryDy=0;exitX=1;exitY=0.5;exitDx=0;exitDy=0;fillColor=#e51400;strokeColor=#FF0000;jumpSize=6;" edge="1" parent="1" source="_vr9zyarAjqqRt6KFrDL-11" target="_vr9zyarAjqqRt6KFrDL-19">
          <mxGeometry width="50" height="50" relative="1" as="geometry">
            <mxPoint x="1190" y="730" as="sourcePoint" />
            <mxPoint x="1560" y="585" as="targetPoint" />
          </mxGeometry>
        </mxCell>
        <mxCell id="_vr9zyarAjqqRt6KFrDL-30" value="" style="endArrow=classic;html=1;rounded=0;entryX=0;entryY=0.5;entryDx=0;entryDy=0;exitX=1;exitY=0.5;exitDx=0;exitDy=0;fillColor=#e51400;strokeColor=#FF0000;jumpSize=6;" edge="1" parent="1" source="_vr9zyarAjqqRt6KFrDL-3" target="_vr9zyarAjqqRt6KFrDL-18">
          <mxGeometry width="50" height="50" relative="1" as="geometry">
            <mxPoint x="1200" y="740" as="sourcePoint" />
            <mxPoint x="1570" y="595" as="targetPoint" />
          </mxGeometry>
        </mxCell>
        <mxCell id="_vr9zyarAjqqRt6KFrDL-31" value="" style="endArrow=classic;html=1;rounded=0;entryX=0.5;entryY=1;entryDx=0;entryDy=0;exitX=1;exitY=0.5;exitDx=0;exitDy=0;fillColor=#e51400;strokeColor=#FF0000;jumpSize=6;" edge="1" parent="1" source="_vr9zyarAjqqRt6KFrDL-11" target="_vr9zyarAjqqRt6KFrDL-17">
          <mxGeometry width="50" height="50" relative="1" as="geometry">
            <mxPoint x="1210" y="750" as="sourcePoint" />
            <mxPoint x="1580" y="605" as="targetPoint" />
          </mxGeometry>
        </mxCell>
        <mxCell id="_vr9zyarAjqqRt6KFrDL-32" value="" style="endArrow=classic;html=1;rounded=0;entryX=0;entryY=0.5;entryDx=0;entryDy=0;exitX=1;exitY=0.5;exitDx=0;exitDy=0;fillColor=#e51400;strokeColor=#FF0000;jumpSize=6;" edge="1" parent="1" source="_vr9zyarAjqqRt6KFrDL-2" target="_vr9zyarAjqqRt6KFrDL-16">
          <mxGeometry width="50" height="50" relative="1" as="geometry">
            <mxPoint x="1220" y="760" as="sourcePoint" />
            <mxPoint x="1590" y="615" as="targetPoint" />
          </mxGeometry>
        </mxCell>
        <mxCell id="_vr9zyarAjqqRt6KFrDL-33" value="" style="endArrow=classic;html=1;rounded=0;entryX=0;entryY=0.5;entryDx=0;entryDy=0;exitX=1;exitY=0.5;exitDx=0;exitDy=0;fillColor=#e51400;strokeColor=#FF0000;jumpSize=6;" edge="1" parent="1" source="_vr9zyarAjqqRt6KFrDL-5" target="_vr9zyarAjqqRt6KFrDL-14">
          <mxGeometry width="50" height="50" relative="1" as="geometry">
            <mxPoint x="1230" y="770" as="sourcePoint" />
            <mxPoint x="1600" y="625" as="targetPoint" />
          </mxGeometry>
        </mxCell>
        <mxCell id="_vr9zyarAjqqRt6KFrDL-34" value="" style="endArrow=classic;html=1;rounded=0;entryX=0;entryY=0.5;entryDx=0;entryDy=0;exitX=1;exitY=0.5;exitDx=0;exitDy=0;fillColor=#e51400;strokeColor=#FF0000;jumpSize=6;" edge="1" parent="1" source="_vr9zyarAjqqRt6KFrDL-1" target="_vr9zyarAjqqRt6KFrDL-17">
          <mxGeometry width="50" height="50" relative="1" as="geometry">
            <mxPoint x="1240" y="780" as="sourcePoint" />
            <mxPoint x="1610" y="635" as="targetPoint" />
          </mxGeometry>
        </mxCell>
        <mxCell id="_vr9zyarAjqqRt6KFrDL-35" value="" style="shape=flexArrow;endArrow=classic;html=1;rounded=0;exitX=0;exitY=0.75;exitDx=0;exitDy=0;entryX=1;entryY=1;entryDx=0;entryDy=0;fillColor=#27CBE4;strokeColor=#001DBC;" edge="1" parent="1" source="_vr9zyarAjqqRt6KFrDL-19" target="_vr9zyarAjqqRt6KFrDL-11">
          <mxGeometry width="50" height="50" relative="1" as="geometry">
            <mxPoint x="1310" y="720" as="sourcePoint" />
            <mxPoint x="1360" y="670" as="targetPoint" />
          </mxGeometry>
        </mxCell>
        <mxCell id="_vr9zyarAjqqRt6KFrDL-36" value="" style="shape=flexArrow;endArrow=classic;html=1;rounded=0;exitX=0;exitY=0.75;exitDx=0;exitDy=0;entryX=1;entryY=1;entryDx=0;entryDy=0;fillColor=#27CBE4;strokeColor=#001DBC;" edge="1" parent="1" source="_vr9zyarAjqqRt6KFrDL-18" target="_vr9zyarAjqqRt6KFrDL-3">
          <mxGeometry width="50" height="50" relative="1" as="geometry">
            <mxPoint x="1710" y="990" as="sourcePoint" />
            <mxPoint x="1248" y="1008" as="targetPoint" />
          </mxGeometry>
        </mxCell>
        <mxCell id="_vr9zyarAjqqRt6KFrDL-37" value="" style="shape=flexArrow;endArrow=classic;html=1;rounded=0;exitX=0;exitY=0.75;exitDx=0;exitDy=0;entryX=1;entryY=1;entryDx=0;entryDy=0;fillColor=#27CBE4;strokeColor=#001DBC;" edge="1" parent="1" source="_vr9zyarAjqqRt6KFrDL-17" target="_vr9zyarAjqqRt6KFrDL-4">
          <mxGeometry width="50" height="50" relative="1" as="geometry">
            <mxPoint x="1720" y="1000" as="sourcePoint" />
            <mxPoint x="1258" y="1018" as="targetPoint" />
          </mxGeometry>
        </mxCell>
        <mxCell id="_vr9zyarAjqqRt6KFrDL-38" value="" style="shape=flexArrow;endArrow=classic;html=1;rounded=0;exitX=0;exitY=0.25;exitDx=0;exitDy=0;entryX=1;entryY=1;entryDx=0;entryDy=0;fillColor=#27CBE4;strokeColor=#001DBC;" edge="1" parent="1" source="_vr9zyarAjqqRt6KFrDL-15" target="_vr9zyarAjqqRt6KFrDL-2">
          <mxGeometry width="50" height="50" relative="1" as="geometry">
            <mxPoint x="1730" y="1010" as="sourcePoint" />
            <mxPoint x="1268" y="1028" as="targetPoint" />
          </mxGeometry>
        </mxCell>
        <mxCell id="_vr9zyarAjqqRt6KFrDL-39" value="" style="shape=flexArrow;endArrow=classic;html=1;rounded=0;exitX=0;exitY=0.25;exitDx=0;exitDy=0;entryX=1;entryY=1;entryDx=0;entryDy=0;fillColor=#27CBE4;strokeColor=#001DBC;" edge="1" parent="1" source="_vr9zyarAjqqRt6KFrDL-16" target="_vr9zyarAjqqRt6KFrDL-5">
          <mxGeometry width="50" height="50" relative="1" as="geometry">
            <mxPoint x="1740" y="1020" as="sourcePoint" />
            <mxPoint x="1278" y="1038" as="targetPoint" />
          </mxGeometry>
        </mxCell>
        <mxCell id="_vr9zyarAjqqRt6KFrDL-40" value="" style="shape=flexArrow;endArrow=classic;html=1;rounded=0;exitX=0;exitY=0.25;exitDx=0;exitDy=0;entryX=1;entryY=0;entryDx=0;entryDy=0;fillColor=#27CBE4;strokeColor=#001DBC;" edge="1" parent="1" source="_vr9zyarAjqqRt6KFrDL-14" target="_vr9zyarAjqqRt6KFrDL-1">
          <mxGeometry width="50" height="50" relative="1" as="geometry">
            <mxPoint x="1750" y="1030" as="sourcePoint" />
            <mxPoint x="1288" y="1048" as="targetPoint" />
          </mxGeometry>
        </mxCell>
        <mxCell id="_vr9zyarAjqqRt6KFrDL-41" value="&lt;font style=&quot;font-size: 30px;&quot;&gt;$$p_1$$&lt;/font&gt;" style="ellipse;whiteSpace=wrap;html=1;aspect=fixed;fillColor=#FFFF00;" vertex="1" parent="1">
          <mxGeometry x="2120" y="430" width="80" height="80" as="geometry" />
        </mxCell>
        <mxCell id="_vr9zyarAjqqRt6KFrDL-42" value="&lt;font style=&quot;font-size: 30px;&quot;&gt;$$p_3$$&lt;/font&gt;" style="ellipse;whiteSpace=wrap;html=1;aspect=fixed;fillColor=#FFFF00;" vertex="1" parent="1">
          <mxGeometry x="2190" y="590" width="80" height="80" as="geometry" />
        </mxCell>
        <mxCell id="_vr9zyarAjqqRt6KFrDL-43" value="&lt;font style=&quot;font-size: 30px;&quot;&gt;$$p_5$$&lt;/font&gt;" style="ellipse;whiteSpace=wrap;html=1;aspect=fixed;fillColor=#FFFF00;" vertex="1" parent="1">
          <mxGeometry x="2204" y="840" width="80" height="80" as="geometry" />
        </mxCell>
        <mxCell id="_vr9zyarAjqqRt6KFrDL-44" value="&lt;font style=&quot;font-size: 30px;&quot;&gt;$$p_4$$&lt;/font&gt;" style="ellipse;whiteSpace=wrap;html=1;aspect=fixed;fillColor=#FFFF00;" vertex="1" parent="1">
          <mxGeometry x="1970" y="740" width="80" height="80" as="geometry" />
        </mxCell>
        <mxCell id="_vr9zyarAjqqRt6KFrDL-45" value="&lt;font style=&quot;font-size: 30px;&quot;&gt;$$p_2$$&lt;/font&gt;" style="ellipse;whiteSpace=wrap;html=1;aspect=fixed;fillColor=#FFFF00;" vertex="1" parent="1">
          <mxGeometry x="1980" y="520" width="80" height="80" as="geometry" />
        </mxCell>
        <mxCell id="_vr9zyarAjqqRt6KFrDL-46" value="" style="endArrow=none;html=1;rounded=0;exitX=1;exitY=0;exitDx=0;exitDy=0;entryX=0;entryY=1;entryDx=0;entryDy=0;" edge="1" parent="1" source="_vr9zyarAjqqRt6KFrDL-45" target="_vr9zyarAjqqRt6KFrDL-41">
          <mxGeometry width="50" height="50" relative="1" as="geometry">
            <mxPoint x="2220" y="650" as="sourcePoint" />
            <mxPoint x="2270" y="600" as="targetPoint" />
          </mxGeometry>
        </mxCell>
        <mxCell id="_vr9zyarAjqqRt6KFrDL-47" value="" style="endArrow=none;html=1;rounded=0;exitX=0;exitY=0;exitDx=0;exitDy=0;entryX=0.5;entryY=1;entryDx=0;entryDy=0;" edge="1" parent="1" source="_vr9zyarAjqqRt6KFrDL-44" target="_vr9zyarAjqqRt6KFrDL-45">
          <mxGeometry width="50" height="50" relative="1" as="geometry">
            <mxPoint x="2220" y="650" as="sourcePoint" />
            <mxPoint x="2270" y="600" as="targetPoint" />
          </mxGeometry>
        </mxCell>
        <mxCell id="_vr9zyarAjqqRt6KFrDL-48" value="" style="endArrow=none;html=1;rounded=0;exitX=1;exitY=0;exitDx=0;exitDy=0;entryX=0;entryY=1;entryDx=0;entryDy=0;" edge="1" parent="1" source="_vr9zyarAjqqRt6KFrDL-44" target="_vr9zyarAjqqRt6KFrDL-42">
          <mxGeometry width="50" height="50" relative="1" as="geometry">
            <mxPoint x="2220" y="650" as="sourcePoint" />
            <mxPoint x="2270" y="600" as="targetPoint" />
          </mxGeometry>
        </mxCell>
        <mxCell id="_vr9zyarAjqqRt6KFrDL-49" value="" style="endArrow=none;html=1;rounded=0;exitX=1;exitY=0.5;exitDx=0;exitDy=0;entryX=0;entryY=0.5;entryDx=0;entryDy=0;" edge="1" parent="1" source="_vr9zyarAjqqRt6KFrDL-44" target="_vr9zyarAjqqRt6KFrDL-43">
          <mxGeometry width="50" height="50" relative="1" as="geometry">
            <mxPoint x="2220" y="650" as="sourcePoint" />
            <mxPoint x="2270" y="600" as="targetPoint" />
          </mxGeometry>
        </mxCell>
        <mxCell id="_vr9zyarAjqqRt6KFrDL-50" value="" style="endArrow=none;html=1;rounded=0;exitX=0.5;exitY=0;exitDx=0;exitDy=0;entryX=1;entryY=1;entryDx=0;entryDy=0;" edge="1" parent="1" source="_vr9zyarAjqqRt6KFrDL-42" target="_vr9zyarAjqqRt6KFrDL-41">
          <mxGeometry width="50" height="50" relative="1" as="geometry">
            <mxPoint x="2220" y="650" as="sourcePoint" />
            <mxPoint x="2270" y="600" as="targetPoint" />
          </mxGeometry>
        </mxCell>
        <mxCell id="_vr9zyarAjqqRt6KFrDL-51" value="&lt;font style=&quot;font-size: 30px;&quot;&gt;$$p_6$$&lt;/font&gt;" style="ellipse;whiteSpace=wrap;html=1;aspect=fixed;fillColor=#FFFF00;" vertex="1" parent="1">
          <mxGeometry x="2080" y="960" width="80" height="80" as="geometry" />
        </mxCell>
        <mxCell id="_vr9zyarAjqqRt6KFrDL-52" value="" style="endArrow=none;html=1;rounded=0;exitX=0.5;exitY=1;exitDx=0;exitDy=0;entryX=0.5;entryY=0;entryDx=0;entryDy=0;" edge="1" parent="1" source="_vr9zyarAjqqRt6KFrDL-41" target="_vr9zyarAjqqRt6KFrDL-51">
          <mxGeometry width="50" height="50" relative="1" as="geometry">
            <mxPoint x="2220" y="650" as="sourcePoint" />
            <mxPoint x="2270" y="600" as="targetPoint" />
          </mxGeometry>
        </mxCell>
        <mxCell id="_vr9zyarAjqqRt6KFrDL-53" value="" style="endArrow=none;html=1;rounded=0;exitX=0.5;exitY=1;exitDx=0;exitDy=0;entryX=0.5;entryY=0;entryDx=0;entryDy=0;" edge="1" parent="1" source="_vr9zyarAjqqRt6KFrDL-42" target="_vr9zyarAjqqRt6KFrDL-43">
          <mxGeometry width="50" height="50" relative="1" as="geometry">
            <mxPoint x="2220" y="650" as="sourcePoint" />
            <mxPoint x="2270" y="600" as="targetPoint" />
          </mxGeometry>
        </mxCell>
        <mxCell id="_vr9zyarAjqqRt6KFrDL-54" value="&lt;font color=&quot;#000000&quot; style=&quot;font-size: 30px;&quot;&gt;$$c_1$$&lt;/font&gt;" style="whiteSpace=wrap;html=1;aspect=fixed;fillColor=#60a917;fontColor=#ffffff;strokeColor=#2D7600;" vertex="1" parent="1">
          <mxGeometry x="2577" y="330" width="80" height="80" as="geometry" />
        </mxCell>
        <mxCell id="_vr9zyarAjqqRt6KFrDL-55" value="&lt;font color=&quot;#000000&quot; style=&quot;font-size: 30px;&quot;&gt;$$c_3$$&lt;/font&gt;" style="whiteSpace=wrap;html=1;aspect=fixed;fillColor=#60a917;fontColor=#ffffff;strokeColor=#2D7600;" vertex="1" parent="1">
          <mxGeometry x="2460" y="610" width="80" height="80" as="geometry" />
        </mxCell>
        <mxCell id="_vr9zyarAjqqRt6KFrDL-56" value="&lt;font color=&quot;#000000&quot; style=&quot;font-size: 30px;&quot;&gt;$$c_2$$&lt;/font&gt;" style="whiteSpace=wrap;html=1;aspect=fixed;fillColor=#60a917;fontColor=#ffffff;strokeColor=#2D7600;" vertex="1" parent="1">
          <mxGeometry x="2680" y="525" width="80" height="80" as="geometry" />
        </mxCell>
        <mxCell id="_vr9zyarAjqqRt6KFrDL-57" value="&lt;font color=&quot;#000000&quot; style=&quot;font-size: 30px;&quot;&gt;$$c_4$$&lt;/font&gt;" style="whiteSpace=wrap;html=1;aspect=fixed;fillColor=#60a917;fontColor=#ffffff;strokeColor=#2D7600;" vertex="1" parent="1">
          <mxGeometry x="2460" y="740" width="80" height="80" as="geometry" />
        </mxCell>
        <mxCell id="_vr9zyarAjqqRt6KFrDL-58" value="&lt;font color=&quot;#000000&quot; style=&quot;font-size: 30px;&quot;&gt;$$c_5$$&lt;/font&gt;" style="whiteSpace=wrap;html=1;aspect=fixed;fillColor=#60a917;fontColor=#ffffff;strokeColor=#2D7600;" vertex="1" parent="1">
          <mxGeometry x="2690" y="790" width="80" height="80" as="geometry" />
        </mxCell>
        <mxCell id="_vr9zyarAjqqRt6KFrDL-59" value="&lt;font color=&quot;#000000&quot; style=&quot;font-size: 30px;&quot;&gt;$$c_6$$&lt;/font&gt;" style="whiteSpace=wrap;html=1;aspect=fixed;fillColor=#60a917;fontColor=#ffffff;strokeColor=#2D7600;" vertex="1" parent="1">
          <mxGeometry x="2610" y="950" width="80" height="80" as="geometry" />
        </mxCell>
        <mxCell id="_vr9zyarAjqqRt6KFrDL-60" value="" style="endArrow=none;html=1;rounded=0;exitX=0.5;exitY=1;exitDx=0;exitDy=0;entryX=0.5;entryY=0;entryDx=0;entryDy=0;" edge="1" parent="1" source="_vr9zyarAjqqRt6KFrDL-55" target="_vr9zyarAjqqRt6KFrDL-57">
          <mxGeometry width="50" height="50" relative="1" as="geometry">
            <mxPoint x="2220" y="650" as="sourcePoint" />
            <mxPoint x="2270" y="600" as="targetPoint" />
          </mxGeometry>
        </mxCell>
        <mxCell id="_vr9zyarAjqqRt6KFrDL-61" value="" style="endArrow=none;html=1;rounded=0;exitX=0;exitY=0.5;exitDx=0;exitDy=0;entryX=1;entryY=0.5;entryDx=0;entryDy=0;" edge="1" parent="1" source="_vr9zyarAjqqRt6KFrDL-58" target="_vr9zyarAjqqRt6KFrDL-57">
          <mxGeometry width="50" height="50" relative="1" as="geometry">
            <mxPoint x="2220" y="650" as="sourcePoint" />
            <mxPoint x="2270" y="600" as="targetPoint" />
          </mxGeometry>
        </mxCell>
        <mxCell id="_vr9zyarAjqqRt6KFrDL-62" value="" style="endArrow=none;html=1;rounded=0;exitX=0.5;exitY=1;exitDx=0;exitDy=0;entryX=0.5;entryY=0;entryDx=0;entryDy=0;" edge="1" parent="1" source="_vr9zyarAjqqRt6KFrDL-57" target="_vr9zyarAjqqRt6KFrDL-59">
          <mxGeometry width="50" height="50" relative="1" as="geometry">
            <mxPoint x="2220" y="650" as="sourcePoint" />
            <mxPoint x="2270" y="600" as="targetPoint" />
          </mxGeometry>
        </mxCell>
        <mxCell id="_vr9zyarAjqqRt6KFrDL-63" value="" style="endArrow=none;html=1;rounded=0;exitX=0.5;exitY=1;exitDx=0;exitDy=0;entryX=0.5;entryY=0;entryDx=0;entryDy=0;" edge="1" parent="1" source="_vr9zyarAjqqRt6KFrDL-58" target="_vr9zyarAjqqRt6KFrDL-59">
          <mxGeometry width="50" height="50" relative="1" as="geometry">
            <mxPoint x="2220" y="650" as="sourcePoint" />
            <mxPoint x="2270" y="600" as="targetPoint" />
          </mxGeometry>
        </mxCell>
        <mxCell id="_vr9zyarAjqqRt6KFrDL-64" value="" style="endArrow=none;html=1;rounded=0;exitX=0.5;exitY=1;exitDx=0;exitDy=0;entryX=0.5;entryY=0;entryDx=0;entryDy=0;" edge="1" parent="1" source="_vr9zyarAjqqRt6KFrDL-56" target="_vr9zyarAjqqRt6KFrDL-58">
          <mxGeometry width="50" height="50" relative="1" as="geometry">
            <mxPoint x="2220" y="650" as="sourcePoint" />
            <mxPoint x="2270" y="600" as="targetPoint" />
          </mxGeometry>
        </mxCell>
        <mxCell id="_vr9zyarAjqqRt6KFrDL-65" value="" style="endArrow=none;html=1;rounded=0;exitX=0.5;exitY=1;exitDx=0;exitDy=0;entryX=0.5;entryY=0;entryDx=0;entryDy=0;" edge="1" parent="1" source="_vr9zyarAjqqRt6KFrDL-54" target="_vr9zyarAjqqRt6KFrDL-55">
          <mxGeometry width="50" height="50" relative="1" as="geometry">
            <mxPoint x="2220" y="650" as="sourcePoint" />
            <mxPoint x="2270" y="600" as="targetPoint" />
          </mxGeometry>
        </mxCell>
        <mxCell id="_vr9zyarAjqqRt6KFrDL-66" value="" style="endArrow=none;html=1;rounded=0;exitX=0.5;exitY=1;exitDx=0;exitDy=0;entryX=0.5;entryY=0;entryDx=0;entryDy=0;" edge="1" parent="1" source="_vr9zyarAjqqRt6KFrDL-54" target="_vr9zyarAjqqRt6KFrDL-56">
          <mxGeometry width="50" height="50" relative="1" as="geometry">
            <mxPoint x="2220" y="650" as="sourcePoint" />
            <mxPoint x="2270" y="600" as="targetPoint" />
          </mxGeometry>
        </mxCell>
        <mxCell id="_vr9zyarAjqqRt6KFrDL-67" value="" style="endArrow=none;html=1;rounded=0;exitX=1;exitY=0.5;exitDx=0;exitDy=0;entryX=0;entryY=0.5;entryDx=0;entryDy=0;" edge="1" parent="1" source="_vr9zyarAjqqRt6KFrDL-55" target="_vr9zyarAjqqRt6KFrDL-56">
          <mxGeometry width="50" height="50" relative="1" as="geometry">
            <mxPoint x="2220" y="650" as="sourcePoint" />
            <mxPoint x="2270" y="600" as="targetPoint" />
          </mxGeometry>
        </mxCell>
        <mxCell id="_vr9zyarAjqqRt6KFrDL-68" value="" style="endArrow=classic;html=1;rounded=0;entryX=0;entryY=0.5;entryDx=0;entryDy=0;exitX=1;exitY=0.5;exitDx=0;exitDy=0;fillColor=#e51400;strokeColor=#FF0000;jumpSize=6;" edge="1" parent="1" source="_vr9zyarAjqqRt6KFrDL-44" target="_vr9zyarAjqqRt6KFrDL-55">
          <mxGeometry width="50" height="50" relative="1" as="geometry">
            <mxPoint x="2220" y="650" as="sourcePoint" />
            <mxPoint x="2270" y="600" as="targetPoint" />
          </mxGeometry>
        </mxCell>
        <mxCell id="_vr9zyarAjqqRt6KFrDL-69" value="" style="endArrow=classic;html=1;rounded=0;entryX=0;entryY=0.5;entryDx=0;entryDy=0;exitX=1;exitY=0.5;exitDx=0;exitDy=0;fillColor=#e51400;strokeColor=#FF0000;jumpSize=6;" edge="1" parent="1" source="_vr9zyarAjqqRt6KFrDL-51" target="_vr9zyarAjqqRt6KFrDL-59">
          <mxGeometry width="50" height="50" relative="1" as="geometry">
            <mxPoint x="2100" y="760" as="sourcePoint" />
            <mxPoint x="2470" y="615" as="targetPoint" />
          </mxGeometry>
        </mxCell>
        <mxCell id="_vr9zyarAjqqRt6KFrDL-70" value="" style="endArrow=classic;html=1;rounded=0;entryX=0;entryY=0.5;entryDx=0;entryDy=0;exitX=1;exitY=0.5;exitDx=0;exitDy=0;fillColor=#e51400;strokeColor=#FF0000;jumpSize=6;" edge="1" parent="1" source="_vr9zyarAjqqRt6KFrDL-43" target="_vr9zyarAjqqRt6KFrDL-58">
          <mxGeometry width="50" height="50" relative="1" as="geometry">
            <mxPoint x="2110" y="770" as="sourcePoint" />
            <mxPoint x="2480" y="625" as="targetPoint" />
          </mxGeometry>
        </mxCell>
        <mxCell id="_vr9zyarAjqqRt6KFrDL-71" value="" style="endArrow=classic;html=1;rounded=0;entryX=0.5;entryY=1;entryDx=0;entryDy=0;exitX=1;exitY=0.5;exitDx=0;exitDy=0;fillColor=#e51400;strokeColor=#FF0000;jumpSize=6;" edge="1" parent="1" source="_vr9zyarAjqqRt6KFrDL-51" target="_vr9zyarAjqqRt6KFrDL-57">
          <mxGeometry width="50" height="50" relative="1" as="geometry">
            <mxPoint x="2120" y="780" as="sourcePoint" />
            <mxPoint x="2490" y="635" as="targetPoint" />
          </mxGeometry>
        </mxCell>
        <mxCell id="_vr9zyarAjqqRt6KFrDL-72" value="" style="endArrow=classic;html=1;rounded=0;entryX=0;entryY=0.5;entryDx=0;entryDy=0;exitX=1;exitY=0.5;exitDx=0;exitDy=0;fillColor=#e51400;strokeColor=#FF0000;jumpSize=6;" edge="1" parent="1" source="_vr9zyarAjqqRt6KFrDL-42" target="_vr9zyarAjqqRt6KFrDL-56">
          <mxGeometry width="50" height="50" relative="1" as="geometry">
            <mxPoint x="2130" y="790" as="sourcePoint" />
            <mxPoint x="2500" y="645" as="targetPoint" />
          </mxGeometry>
        </mxCell>
        <mxCell id="_vr9zyarAjqqRt6KFrDL-73" value="" style="endArrow=classic;html=1;rounded=0;entryX=0;entryY=0.5;entryDx=0;entryDy=0;exitX=1;exitY=0.5;exitDx=0;exitDy=0;fillColor=#e51400;strokeColor=#FF0000;jumpSize=6;" edge="1" parent="1" source="_vr9zyarAjqqRt6KFrDL-45" target="_vr9zyarAjqqRt6KFrDL-54">
          <mxGeometry width="50" height="50" relative="1" as="geometry">
            <mxPoint x="2140" y="800" as="sourcePoint" />
            <mxPoint x="2510" y="655" as="targetPoint" />
          </mxGeometry>
        </mxCell>
        <mxCell id="_vr9zyarAjqqRt6KFrDL-74" value="" style="endArrow=classic;html=1;rounded=0;entryX=0;entryY=0.5;entryDx=0;entryDy=0;exitX=1;exitY=0.5;exitDx=0;exitDy=0;fillColor=#e51400;strokeColor=#FF0000;jumpSize=6;" edge="1" parent="1" source="_vr9zyarAjqqRt6KFrDL-41" target="_vr9zyarAjqqRt6KFrDL-57">
          <mxGeometry width="50" height="50" relative="1" as="geometry">
            <mxPoint x="2150" y="810" as="sourcePoint" />
            <mxPoint x="2520" y="665" as="targetPoint" />
          </mxGeometry>
        </mxCell>
        <mxCell id="_vr9zyarAjqqRt6KFrDL-75" value="" style="shape=flexArrow;endArrow=classic;html=1;rounded=0;exitX=0;exitY=0.75;exitDx=0;exitDy=0;entryX=1;entryY=1;entryDx=0;entryDy=0;fillColor=#27CBE4;strokeColor=#001DBC;" edge="1" parent="1" source="_vr9zyarAjqqRt6KFrDL-59" target="_vr9zyarAjqqRt6KFrDL-51">
          <mxGeometry width="50" height="50" relative="1" as="geometry">
            <mxPoint x="2220" y="750" as="sourcePoint" />
            <mxPoint x="2270" y="700" as="targetPoint" />
          </mxGeometry>
        </mxCell>
        <mxCell id="_vr9zyarAjqqRt6KFrDL-76" value="" style="shape=flexArrow;endArrow=classic;html=1;rounded=0;exitX=0;exitY=0.75;exitDx=0;exitDy=0;entryX=1;entryY=1;entryDx=0;entryDy=0;fillColor=#27CBE4;strokeColor=#001DBC;" edge="1" parent="1" source="_vr9zyarAjqqRt6KFrDL-58" target="_vr9zyarAjqqRt6KFrDL-43">
          <mxGeometry width="50" height="50" relative="1" as="geometry">
            <mxPoint x="2620" y="1020" as="sourcePoint" />
            <mxPoint x="2158" y="1038" as="targetPoint" />
          </mxGeometry>
        </mxCell>
        <mxCell id="_vr9zyarAjqqRt6KFrDL-77" value="" style="shape=flexArrow;endArrow=classic;html=1;rounded=0;exitX=0;exitY=0.75;exitDx=0;exitDy=0;entryX=1;entryY=1;entryDx=0;entryDy=0;fillColor=#27CBE4;strokeColor=#001DBC;" edge="1" parent="1" source="_vr9zyarAjqqRt6KFrDL-57" target="_vr9zyarAjqqRt6KFrDL-44">
          <mxGeometry width="50" height="50" relative="1" as="geometry">
            <mxPoint x="2630" y="1030" as="sourcePoint" />
            <mxPoint x="2168" y="1048" as="targetPoint" />
          </mxGeometry>
        </mxCell>
        <mxCell id="_vr9zyarAjqqRt6KFrDL-78" value="" style="shape=flexArrow;endArrow=classic;html=1;rounded=0;exitX=0;exitY=0.25;exitDx=0;exitDy=0;entryX=1;entryY=1;entryDx=0;entryDy=0;fillColor=#27CBE4;strokeColor=#001DBC;" edge="1" parent="1" source="_vr9zyarAjqqRt6KFrDL-55" target="_vr9zyarAjqqRt6KFrDL-42">
          <mxGeometry width="50" height="50" relative="1" as="geometry">
            <mxPoint x="2640" y="1040" as="sourcePoint" />
            <mxPoint x="2178" y="1058" as="targetPoint" />
          </mxGeometry>
        </mxCell>
        <mxCell id="_vr9zyarAjqqRt6KFrDL-79" value="" style="shape=flexArrow;endArrow=classic;html=1;rounded=0;exitX=0;exitY=0.25;exitDx=0;exitDy=0;entryX=1;entryY=1;entryDx=0;entryDy=0;fillColor=#27CBE4;strokeColor=#001DBC;" edge="1" parent="1" source="_vr9zyarAjqqRt6KFrDL-56" target="_vr9zyarAjqqRt6KFrDL-45">
          <mxGeometry width="50" height="50" relative="1" as="geometry">
            <mxPoint x="2650" y="1050" as="sourcePoint" />
            <mxPoint x="2188" y="1068" as="targetPoint" />
          </mxGeometry>
        </mxCell>
        <mxCell id="_vr9zyarAjqqRt6KFrDL-80" value="" style="shape=flexArrow;endArrow=classic;html=1;rounded=0;exitX=0;exitY=0.25;exitDx=0;exitDy=0;entryX=1;entryY=0;entryDx=0;entryDy=0;fillColor=#27CBE4;strokeColor=#001DBC;" edge="1" parent="1" source="_vr9zyarAjqqRt6KFrDL-54" target="_vr9zyarAjqqRt6KFrDL-41">
          <mxGeometry width="50" height="50" relative="1" as="geometry">
            <mxPoint x="2660" y="1060" as="sourcePoint" />
            <mxPoint x="2198" y="1078" as="targetPoint" />
          </mxGeometry>
        </mxCell>
        <mxCell id="_vr9zyarAjqqRt6KFrDL-81" value="" style="shape=cross;whiteSpace=wrap;html=1;rotation=45;strokeColor=#FF0000;fillColor=#FF0000;" vertex="1" parent="1">
          <mxGeometry x="1070" y="490" width="80" height="80" as="geometry" />
        </mxCell>
        <mxCell id="_vr9zyarAjqqRt6KFrDL-85" value="$$w_{2,4}$$" style="edgeLabel;html=1;align=center;verticalAlign=middle;resizable=0;points=[];labelBackgroundColor=none;" vertex="1" connectable="0" parent="1">
          <mxGeometry x="1110.0037930038145" y="629.9953303726431" as="geometry" />
        </mxCell>
        <mxCell id="_vr9zyarAjqqRt6KFrDL-86" value="$$w_{1,3}$$" style="edgeLabel;html=1;align=center;verticalAlign=middle;resizable=0;points=[];labelBackgroundColor=none;" vertex="1" connectable="0" parent="1">
          <mxGeometry x="1310.0037930038145" y="504.99533037264314" as="geometry" />
        </mxCell>
        <mxCell id="_vr9zyarAjqqRt6KFrDL-87" value="$$w_{1,6}$$" style="edgeLabel;html=1;align=center;verticalAlign=middle;resizable=0;points=[];labelBackgroundColor=none;" vertex="1" connectable="0" parent="1">
          <mxGeometry x="1219.9737930038145" y="609.9953303726431" as="geometry" />
        </mxCell>
        <mxCell id="_vr9zyarAjqqRt6KFrDL-88" value="$$w_{3,4}$$" style="edgeLabel;html=1;align=center;verticalAlign=middle;resizable=0;points=[];labelBackgroundColor=none;" vertex="1" connectable="0" parent="1">
          <mxGeometry x="1200.0037930038145" y="690.7853303726431" as="geometry" />
        </mxCell>
        <mxCell id="_vr9zyarAjqqRt6KFrDL-89" value="$$w_{4,5}$$" style="edgeLabel;html=1;align=center;verticalAlign=middle;resizable=0;points=[];labelBackgroundColor=none;" vertex="1" connectable="0" parent="1">
          <mxGeometry x="1200.0037930038145" y="809.9953303726431" as="geometry" />
        </mxCell>
        <mxCell id="_vr9zyarAjqqRt6KFrDL-90" value="$$w_{3,5}$$" style="edgeLabel;html=1;align=center;verticalAlign=middle;resizable=0;points=[];labelBackgroundColor=none;" vertex="1" connectable="0" parent="1">
          <mxGeometry x="1340.0037930038145" y="729.9953303726431" as="geometry" />
        </mxCell>
        <mxCell id="_vr9zyarAjqqRt6KFrDL-91" value="$$\theta_1$$" style="text;html=1;align=center;verticalAlign=middle;resizable=0;points=[];autosize=1;strokeColor=none;fillColor=none;" vertex="1" parent="1">
          <mxGeometry x="1204" y="370" width="90" height="30" as="geometry" />
        </mxCell>
        <mxCell id="_vr9zyarAjqqRt6KFrDL-92" value="$$\theta_2$$" style="text;html=1;align=center;verticalAlign=middle;resizable=0;points=[];autosize=1;strokeColor=none;fillColor=none;" vertex="1" parent="1">
          <mxGeometry x="1065" y="460" width="90" height="30" as="geometry" />
        </mxCell>
        <mxCell id="_vr9zyarAjqqRt6KFrDL-93" value="$$\theta_3$$" style="text;html=1;align=center;verticalAlign=middle;resizable=0;points=[];autosize=1;strokeColor=none;fillColor=none;" vertex="1" parent="1">
          <mxGeometry x="1330" y="560" width="90" height="30" as="geometry" />
        </mxCell>
        <mxCell id="_vr9zyarAjqqRt6KFrDL-94" value="$$\theta_4$$" style="text;html=1;align=center;verticalAlign=middle;resizable=0;points=[];autosize=1;strokeColor=none;fillColor=none;" vertex="1" parent="1">
          <mxGeometry x="1070" y="680" width="90" height="30" as="geometry" />
        </mxCell>
        <mxCell id="_vr9zyarAjqqRt6KFrDL-95" value="$$\theta_5$$" style="text;html=1;align=center;verticalAlign=middle;resizable=0;points=[];autosize=1;strokeColor=none;fillColor=none;" vertex="1" parent="1">
          <mxGeometry x="1340" y="810" width="90" height="30" as="geometry" />
        </mxCell>
        <mxCell id="_vr9zyarAjqqRt6KFrDL-96" value="$$\theta_6$$" style="text;html=1;align=center;verticalAlign=middle;resizable=0;points=[];autosize=1;strokeColor=none;fillColor=none;" vertex="1" parent="1">
          <mxGeometry x="1200" y="910" width="90" height="30" as="geometry" />
        </mxCell>
      </root>
    </mxGraphModel>
  </diagram>
</mxfile>
